<?xml version="1.0" encoding="UTF-8"?>
<svg width="92px" height="92px" viewBox="0 0 92 92" version="1.1" xmlns="http://www.w3.org/2000/svg" xmlns:xlink="http://www.w3.org/1999/xlink">
    <!-- Generator: Sketch 47 (45396) - http://www.bohemiancoding.com/sketch -->
    <title>code</title>
    <desc>Created with Sketch.</desc>
    <defs></defs>
    <g id="Symbols" stroke="none" stroke-width="1" fill="none" fill-rule="evenodd">
        <g id="code">
            <path d="M91,46 C91,70.8535156 70.8527869,91 45.9983723,91 C21.1472131,91 1,70.8535156 1,46 C1,21.1464844 21.1472131,1 45.9983723,1 C70.8527869,1 91,21.1464844 91,46" id="Fill-1-Copy-9" stroke="#FFFFFF" stroke-width="2"></path>
            <g transform="translate(23.000000, 28.000000)" id="Shape" fill-rule="nonzero" fill="#FFFFFF">
                <path d="M14.6907104,28.9191257 L13.4065574,30.2032787 C13.235337,30.3744991 13.0384335,30.4601093 12.815847,30.4601093 C12.5932605,30.4601093 12.396357,30.3744991 12.2251366,30.2032787 L0.256830601,18.2349727 C0.0856102004,18.0637523 0,17.8668488 0,17.6442623 C0,17.4216758 0.0856102004,17.2247723 0.256830601,17.0535519 L12.2251366,5.0852459 C12.396357,4.9140255 12.5932605,4.8284153 12.815847,4.8284153 C13.0384335,4.8284153 13.235337,4.9140255 13.4065574,5.0852459 L14.6907104,6.36939891 C14.8619308,6.54061931 14.947541,6.73752277 14.947541,6.96010929 C14.947541,7.18269581 14.8619308,7.37959927 14.6907104,7.55081967 L4.59726776,17.6442623 L14.6907104,27.7377049 C14.8619308,27.9089253 14.947541,28.1058288 14.947541,28.3284153 C14.947541,28.5510018 14.8619308,28.7479053 14.6907104,28.9191257 Z M29.8693989,1.51530055 L20.2896175,34.6721311 C20.2211293,34.8947177 20.0884335,35.0616576 19.8915301,35.1729508 C19.6946266,35.2842441 19.4934426,35.3056466 19.2879781,35.2371585 L17.6956284,34.8005464 C17.4730419,34.7320583 17.306102,34.5993625 17.1948087,34.402459 C17.0835155,34.2055556 17.0621129,33.9958106 17.1306011,33.773224 L26.7103825,0.616393443 C26.7788707,0.393806922 26.9115665,0.226867031 27.1084699,0.11557377 C27.3053734,0.00428051002 27.5065574,-0.0171220401 27.7120219,0.0513661202 L29.3043716,0.487978142 C29.5269581,0.556466302 29.693898,0.689162113 29.8051913,0.886065574 C29.9164845,1.08296903 29.9378871,1.29271403 29.8693989,1.51530055 Z M46.7431694,18.2349727 L34.7748634,30.2032787 C34.603643,30.3744991 34.4067395,30.4601093 34.184153,30.4601093 C33.9615665,30.4601093 33.764663,30.3744991 33.5934426,30.2032787 L32.3092896,28.9191257 C32.1380692,28.7479053 32.052459,28.5510018 32.052459,28.3284153 C32.052459,28.1058288 32.1380692,27.9089253 32.3092896,27.7377049 L42.4027322,17.6442623 L32.3092896,7.55081967 C32.1380692,7.37959927 32.052459,7.18269581 32.052459,6.96010929 C32.052459,6.73752277 32.1380692,6.54061931 32.3092896,6.36939891 L33.5934426,5.0852459 C33.764663,4.9140255 33.9615665,4.8284153 34.184153,4.8284153 C34.4067395,4.8284153 34.603643,4.9140255 34.7748634,5.0852459 L46.7431694,17.0535519 C46.9143898,17.2247723 47,17.4216758 47,17.6442623 C47,17.8668488 46.9143898,18.0637523 46.7431694,18.2349727 Z"></path>
            </g>
        </g>
    </g>
</svg>