<?xml version="1.0" encoding="UTF-8"?>
<svg width="92px" height="92px" viewBox="0 0 92 92" version="1.1" xmlns="http://www.w3.org/2000/svg" xmlns:xlink="http://www.w3.org/1999/xlink">
    <!-- Generator: Sketch 47 (45396) - http://www.bohemiancoding.com/sketch -->
    <title>desktop</title>
    <desc>Created with Sketch.</desc>
    <defs></defs>
    <g id="Symbols" stroke="none" stroke-width="1" fill="none" fill-rule="evenodd">
        <g id="desktop">
            <path d="M91,46 C91,70.8535156 70.8527869,91 45.9983723,91 C21.1472131,91 1,70.8535156 1,46 C1,21.1464844 21.1472131,1 45.9983723,1 C70.8527869,1 91,21.1464844 91,46" id="Fill-1-Copy-9" stroke="#FFFFFF" stroke-width="2"></path>
            <g transform="translate(23.000000, 26.000000)" id="Shape" fill-rule="nonzero" fill="#FFFFFF">
                <path d="M43.8666667,24.2833333 L43.8666667,3.91666667 C43.8666667,3.70451389 43.7891493,3.52092014 43.6341146,3.36588542 C43.4790799,3.21085069 43.2954861,3.13333333 43.0833333,3.13333333 L3.91666667,3.13333333 C3.70451389,3.13333333 3.52092014,3.21085069 3.36588542,3.36588542 C3.21085069,3.52092014 3.13333333,3.70451389 3.13333333,3.91666667 L3.13333333,24.2833333 C3.13333333,24.4954861 3.21085069,24.6790799 3.36588542,24.8341146 C3.52092014,24.9891493 3.70451389,25.0666667 3.91666667,25.0666667 L43.0833333,25.0666667 C43.2954861,25.0666667 43.4790799,24.9891493 43.6341146,24.8341146 C43.7891493,24.6790799 43.8666667,24.4954861 43.8666667,24.2833333 Z M47,3.91666667 L47,30.55 C47,31.6270833 46.6164931,32.5491319 45.8494792,33.3161458 C45.0824653,34.0831597 44.1604167,34.4666667 43.0833333,34.4666667 L29.7666667,34.4666667 C29.7666667,35.0704861 29.8972222,35.7028646 30.1583333,36.3638021 C30.4194444,37.0247396 30.6805556,37.6040799 30.9416667,38.1018229 C31.2027778,38.599566 31.3333333,38.9545139 31.3333333,39.1666667 C31.3333333,39.5909722 31.1782986,39.9581597 30.8682292,40.2682292 C30.5581597,40.5782986 30.1909722,40.7333333 29.7666667,40.7333333 L17.2333333,40.7333333 C16.8090278,40.7333333 16.4418403,40.5782986 16.1317708,40.2682292 C15.8217014,39.9581597 15.6666667,39.5909722 15.6666667,39.1666667 C15.6666667,38.9381944 15.7972222,38.5791667 16.0583333,38.0895833 C16.3194444,37.6 16.5805556,37.0288194 16.8416667,36.3760417 C17.1027778,35.7232639 17.2333333,35.0868056 17.2333333,34.4666667 L3.91666667,34.4666667 C2.83958333,34.4666667 1.91753472,34.0831597 1.15052083,33.3161458 C0.383506944,32.5491319 0,31.6270833 0,30.55 L0,3.91666667 C0,2.83958333 0.383506944,1.91753472 1.15052083,1.15052083 C1.91753472,0.383506944 2.83958333,0 3.91666667,0 L43.0833333,0 C44.1604167,0 45.0824653,0.383506944 45.8494792,1.15052083 C46.6164931,1.91753472 47,2.83958333 47,3.91666667 Z"></path>
            </g>
        </g>
    </g>
</svg>