<?xml version="1.0" encoding="UTF-8"?>
<svg width="92px" height="92px" viewBox="0 0 92 92" version="1.1" xmlns="http://www.w3.org/2000/svg" xmlns:xlink="http://www.w3.org/1999/xlink">
    <!-- Generator: Sketch 47 (45396) - http://www.bohemiancoding.com/sketch -->
    <title>calculator</title>
    <desc>Created with Sketch.</desc>
    <defs></defs>
    <g id="Symbols" stroke="none" stroke-width="1" fill="none" fill-rule="evenodd">
        <g id="calculator">
            <path d="M91,46 C91,70.8535156 70.8527869,91 45.9983723,91 C21.1472131,91 1,70.8535156 1,46 C1,21.1464844 21.1472131,1 45.9983723,1 C70.8527869,1 91,21.1464844 91,46" id="Fill-1-Copy-9" stroke="#FFFFFF" stroke-width="2"></path>
            <g transform="translate(23.000000, 21.000000)" id="Shape" fill-rule="nonzero" fill="#FFFFFF">
                <path d="M10.8461538,43.3846154 C10.8461538,42.3866186 10.4930889,41.5345553 9.78695913,40.8284255 C9.08082933,40.1222957 8.22876603,39.7692308 7.23076923,39.7692308 C6.23277244,39.7692308 5.38070913,40.1222957 4.67457933,40.8284255 C3.96844952,41.5345553 3.61538462,42.3866186 3.61538462,43.3846154 C3.61538462,44.3826122 3.96844952,45.2346755 4.67457933,45.9408053 C5.38070913,46.6469351 6.23277244,47 7.23076923,47 C8.22876603,47 9.08082933,46.6469351 9.78695913,45.9408053 C10.4930889,45.2346755 10.8461538,44.3826122 10.8461538,43.3846154 Z M21.6923077,43.3846154 C21.6923077,42.3866186 21.3392428,41.5345553 20.633113,40.8284255 C19.9269832,40.1222957 19.0749199,39.7692308 18.0769231,39.7692308 C17.0789263,39.7692308 16.226863,40.1222957 15.5207332,40.8284255 C14.8146034,41.5345553 14.4615385,42.3866186 14.4615385,43.3846154 C14.4615385,44.3826122 14.8146034,45.2346755 15.5207332,45.9408053 C16.226863,46.6469351 17.0789263,47 18.0769231,47 C19.0749199,47 19.9269832,46.6469351 20.633113,45.9408053 C21.3392428,45.2346755 21.6923077,44.3826122 21.6923077,43.3846154 Z M10.8461538,32.5384615 C10.8461538,31.5404647 10.4930889,30.6884014 9.78695913,29.9822716 C9.08082933,29.2761418 8.22876603,28.9230769 7.23076923,28.9230769 C6.23277244,28.9230769 5.38070913,29.2761418 4.67457933,29.9822716 C3.96844952,30.6884014 3.61538462,31.5404647 3.61538462,32.5384615 C3.61538462,33.5364583 3.96844952,34.3885216 4.67457933,35.0946514 C5.38070913,35.8007812 6.23277244,36.1538462 7.23076923,36.1538462 C8.22876603,36.1538462 9.08082933,35.8007812 9.78695913,35.0946514 C10.4930889,34.3885216 10.8461538,33.5364583 10.8461538,32.5384615 Z M32.5384615,43.3846154 C32.5384615,42.3866186 32.1853966,41.5345553 31.4792668,40.8284255 C30.773137,40.1222957 29.9210737,39.7692308 28.9230769,39.7692308 C27.9250801,39.7692308 27.0730168,40.1222957 26.366887,40.8284255 C25.6607572,41.5345553 25.3076923,42.3866186 25.3076923,43.3846154 C25.3076923,44.3826122 25.6607572,45.2346755 26.366887,45.9408053 C27.0730168,46.6469351 27.9250801,47 28.9230769,47 C29.9210737,47 30.773137,46.6469351 31.4792668,45.9408053 C32.1853966,45.2346755 32.5384615,44.3826122 32.5384615,43.3846154 Z M21.6923077,32.5384615 C21.6923077,31.5404647 21.3392428,30.6884014 20.633113,29.9822716 C19.9269832,29.2761418 19.0749199,28.9230769 18.0769231,28.9230769 C17.0789263,28.9230769 16.226863,29.2761418 15.5207332,29.9822716 C14.8146034,30.6884014 14.4615385,31.5404647 14.4615385,32.5384615 C14.4615385,33.5364583 14.8146034,34.3885216 15.5207332,35.0946514 C16.226863,35.8007812 17.0789263,36.1538462 18.0769231,36.1538462 C19.0749199,36.1538462 19.9269832,35.8007812 20.633113,35.0946514 C21.3392428,34.3885216 21.6923077,33.5364583 21.6923077,32.5384615 Z M10.8461538,21.6923077 C10.8461538,20.6943109 10.4930889,19.8422476 9.78695913,19.1361178 C9.08082933,18.429988 8.22876603,18.0769231 7.23076923,18.0769231 C6.23277244,18.0769231 5.38070913,18.429988 4.67457933,19.1361178 C3.96844952,19.8422476 3.61538462,20.6943109 3.61538462,21.6923077 C3.61538462,22.6903045 3.96844952,23.5423678 4.67457933,24.2484976 C5.38070913,24.9546274 6.23277244,25.3076923 7.23076923,25.3076923 C8.22876603,25.3076923 9.08082933,24.9546274 9.78695913,24.2484976 C10.4930889,23.5423678 10.8461538,22.6903045 10.8461538,21.6923077 Z M32.5384615,32.5384615 C32.5384615,31.5404647 32.1853966,30.6884014 31.4792668,29.9822716 C30.773137,29.2761418 29.9210737,28.9230769 28.9230769,28.9230769 C27.9250801,28.9230769 27.0730168,29.2761418 26.366887,29.9822716 C25.6607572,30.6884014 25.3076923,31.5404647 25.3076923,32.5384615 C25.3076923,33.5364583 25.6607572,34.3885216 26.366887,35.0946514 C27.0730168,35.8007812 27.9250801,36.1538462 28.9230769,36.1538462 C29.9210737,36.1538462 30.773137,35.8007812 31.4792668,35.0946514 C32.1853966,34.3885216 32.5384615,33.5364583 32.5384615,32.5384615 Z M21.6923077,21.6923077 C21.6923077,20.6943109 21.3392428,19.8422476 20.633113,19.1361178 C19.9269832,18.429988 19.0749199,18.0769231 18.0769231,18.0769231 C17.0789263,18.0769231 16.226863,18.429988 15.5207332,19.1361178 C14.8146034,19.8422476 14.4615385,20.6943109 14.4615385,21.6923077 C14.4615385,22.6903045 14.8146034,23.5423678 15.5207332,24.2484976 C16.226863,24.9546274 17.0789263,25.3076923 18.0769231,25.3076923 C19.0749199,25.3076923 19.9269832,24.9546274 20.633113,24.2484976 C21.3392428,23.5423678 21.6923077,22.6903045 21.6923077,21.6923077 Z M43.3846154,43.3846154 L43.3846154,32.5384615 C43.3846154,31.5592949 43.0268429,30.7119391 42.3112981,29.9963942 C41.5957532,29.2808494 40.7483974,28.9230769 39.7692308,28.9230769 C38.7900641,28.9230769 37.9427083,29.2808494 37.2271635,29.9963942 C36.5116186,30.7119391 36.1538462,31.5592949 36.1538462,32.5384615 L36.1538462,43.3846154 C36.1538462,44.3637821 36.5116186,45.2111378 37.2271635,45.9266827 C37.9427083,46.6422276 38.7900641,47 39.7692308,47 C40.7483974,47 41.5957532,46.6422276 42.3112981,45.9266827 C43.0268429,45.2111378 43.3846154,44.3637821 43.3846154,43.3846154 Z M32.5384615,21.6923077 C32.5384615,20.6943109 32.1853966,19.8422476 31.4792668,19.1361178 C30.773137,18.429988 29.9210737,18.0769231 28.9230769,18.0769231 C27.9250801,18.0769231 27.0730168,18.429988 26.366887,19.1361178 C25.6607572,19.8422476 25.3076923,20.6943109 25.3076923,21.6923077 C25.3076923,22.6903045 25.6607572,23.5423678 26.366887,24.2484976 C27.0730168,24.9546274 27.9250801,25.3076923 28.9230769,25.3076923 C29.9210737,25.3076923 30.773137,24.9546274 31.4792668,24.2484976 C32.1853966,23.5423678 32.5384615,22.6903045 32.5384615,21.6923077 Z M43.3846154,12.6538462 L43.3846154,5.42307692 C43.3846154,4.93349359 43.2057292,4.50981571 42.8479567,4.15204327 C42.4901843,3.79427083 42.0665064,3.61538462 41.5769231,3.61538462 L5.42307692,3.61538462 C4.93349359,3.61538462 4.50981571,3.79427083 4.15204327,4.15204327 C3.79427083,4.50981571 3.61538462,4.93349359 3.61538462,5.42307692 L3.61538462,12.6538462 C3.61538462,13.1434295 3.79427083,13.5671074 4.15204327,13.9248798 C4.50981571,14.2826522 4.93349359,14.4615385 5.42307692,14.4615385 L41.5769231,14.4615385 C42.0665064,14.4615385 42.4901843,14.2826522 42.8479567,13.9248798 C43.2057292,13.5671074 43.3846154,13.1434295 43.3846154,12.6538462 Z M43.3846154,21.6923077 C43.3846154,20.6943109 43.0315505,19.8422476 42.3254207,19.1361178 C41.6192909,18.429988 40.7672276,18.0769231 39.7692308,18.0769231 C38.771234,18.0769231 37.9191707,18.429988 37.2130409,19.1361178 C36.5069111,19.8422476 36.1538462,20.6943109 36.1538462,21.6923077 C36.1538462,22.6903045 36.5069111,23.5423678 37.2130409,24.2484976 C37.9191707,24.9546274 38.771234,25.3076923 39.7692308,25.3076923 C40.7672276,25.3076923 41.6192909,24.9546274 42.3254207,24.2484976 C43.0315505,23.5423678 43.3846154,22.6903045 43.3846154,21.6923077 Z M47,3.61538462 L47,47 C47,47.9791667 46.6422276,48.8265224 45.9266827,49.5420673 C45.2111378,50.2576122 44.3637821,50.6153846 43.3846154,50.6153846 L3.61538462,50.6153846 C2.63621795,50.6153846 1.78886218,50.2576122 1.07331731,49.5420673 C0.357772436,48.8265224 0,47.9791667 0,47 L0,3.61538462 C0,2.63621795 0.357772436,1.78886218 1.07331731,1.07331731 C1.78886218,0.357772436 2.63621795,0 3.61538462,0 L43.3846154,0 C44.3637821,0 45.2111378,0.357772436 45.9266827,1.07331731 C46.6422276,1.78886218 47,2.63621795 47,3.61538462 Z"></path>
            </g>
        </g>
    </g>
</svg>