<?xml version="1.0" encoding="UTF-8"?>
<svg width="92px" height="92px" viewBox="0 0 92 92" version="1.1" xmlns="http://www.w3.org/2000/svg" xmlns:xlink="http://www.w3.org/1999/xlink">
    <!-- Generator: Sketch 47 (45396) - http://www.bohemiancoding.com/sketch -->
    <title>lightbulb</title>
    <desc>Created with Sketch.</desc>
    <defs></defs>
    <g id="Symbols" stroke="none" stroke-width="1" fill="none" fill-rule="evenodd">
        <g id="lightbulb">
            <path d="M91,46 C91,70.8535156 70.8527869,91 45.9983723,91 C21.1472131,91 1,70.8535156 1,46 C1,21.1464844 21.1472131,1 45.9983723,1 C70.8527869,1 91,21.1464844 91,46" id="Fill-1-Copy-9" stroke="#FFFFFF" stroke-width="2"></path>
            <g id="lightbulb-o" transform="translate(29.000000, 21.000000)" fill-rule="nonzero" fill="#FFFFFF">
                <path d="M23.9583333,14.5833333 C23.9583333,14.8654514 23.8552517,15.109592 23.6490885,15.3157552 C23.4429253,15.5219184 23.1987847,15.625 22.9166667,15.625 C22.6345486,15.625 22.390408,15.5219184 22.1842448,15.3157552 C21.9780816,15.109592 21.875,14.8654514 21.875,14.5833333 C21.875,13.5850694 21.2890625,12.8146701 20.1171875,12.2721354 C18.9453125,11.7296007 17.7951389,11.4583333 16.6666667,11.4583333 C16.3845486,11.4583333 16.140408,11.3552517 15.9342448,11.1490885 C15.7280816,10.9429253 15.625,10.6987847 15.625,10.4166667 C15.625,10.1345486 15.7280816,9.89040799 15.9342448,9.68424479 C16.140408,9.4780816 16.3845486,9.375 16.6666667,9.375 C17.7517361,9.375 18.8313802,9.54861111 19.905599,9.89583333 C20.9798177,10.2430556 21.9238281,10.8289931 22.7376302,11.6536458 C23.5514323,12.4782986 23.9583333,13.4548611 23.9583333,14.5833333 Z M29.1666667,14.5833333 C29.1666667,13.0208333 28.7923177,11.5668403 28.0436198,10.2213542 C27.2949219,8.87586806 26.3183594,7.77452257 25.1139323,6.91731771 C23.9095052,6.06011285 22.5748698,5.38736979 21.110026,4.89908854 C19.6451823,4.41080729 18.1640625,4.16666667 16.6666667,4.16666667 C15.1692708,4.16666667 13.688151,4.41080729 12.2233073,4.89908854 C10.7584635,5.38736979 9.42382813,6.06011285 8.21940104,6.91731771 C7.01497396,7.77452257 6.03841146,8.87586806 5.28971354,10.2213542 C4.54101563,11.5668403 4.16666667,13.0208333 4.16666667,14.5833333 C4.16666667,16.7751736 4.90451389,18.7282986 6.38020833,20.4427083 C6.59722222,20.6814236 6.9281684,21.0394965 7.37304688,21.5169271 C7.81792535,21.9943576 8.14887153,22.3524306 8.36588542,22.5911458 C11.1436632,25.9114583 12.6736111,29.1449653 12.9557292,32.2916667 L20.3776042,32.2916667 C20.6597222,29.1449653 22.1896701,25.9114583 24.9674479,22.5911458 C25.1844618,22.3524306 25.515408,21.9943576 25.9602865,21.5169271 C26.4051649,21.0394965 26.7361111,20.6814236 26.953125,20.4427083 C28.4288194,18.7282986 29.1666667,16.7751736 29.1666667,14.5833333 Z M33.3333333,14.5833333 C33.3333333,17.9470486 32.2157118,20.8550347 29.9804687,23.3072917 C29.0039062,24.3706597 28.1955295,25.3146701 27.5553385,26.1393229 C26.9151476,26.9639757 26.2695312,28.000217 25.6184896,29.2480469 C24.9674479,30.4958767 24.5985243,31.6623264 24.5117187,32.7473958 C25.531684,33.3550347 26.0416667,34.2447917 26.0416667,35.4166667 C26.0416667,36.2196181 25.7703993,36.9140625 25.2278646,37.5 C25.7703993,38.0859375 26.0416667,38.7803819 26.0416667,39.5833333 C26.0416667,40.7118056 25.5533854,41.5907118 24.5768229,42.2200521 C24.858941,42.719184 25,43.2291667 25,43.75 C25,44.7482639 24.6582031,45.5186632 23.9746094,46.0611979 C23.2910156,46.6037326 22.4500868,46.875 21.4518229,46.875 C21.0177951,47.8298611 20.3667535,48.5894097 19.4986979,49.1536458 C18.6306424,49.7178819 17.6866319,50 16.6666667,50 C15.6467014,50 14.702691,49.7178819 13.8346354,49.1536458 C12.9665799,48.5894097 12.3155382,47.8298611 11.8815104,46.875 C10.8832465,46.875 10.0423177,46.6037326 9.35872396,46.0611979 C8.67513021,45.5186632 8.33333333,44.7482639 8.33333333,43.75 C8.33333333,43.2291667 8.47439236,42.719184 8.75651042,42.2200521 C7.77994792,41.5907118 7.29166667,40.7118056 7.29166667,39.5833333 C7.29166667,38.7803819 7.56293403,38.0859375 8.10546875,37.5 C7.56293403,36.9140625 7.29166667,36.2196181 7.29166667,35.4166667 C7.29166667,34.2447917 7.80164931,33.3550347 8.82161458,32.7473958 C8.73480903,31.6623264 8.36588542,30.4958767 7.71484375,29.2480469 C7.06380208,28.000217 6.41818576,26.9639757 5.77799479,26.1393229 C5.13780382,25.3146701 4.32942708,24.3706597 3.35286458,23.3072917 C1.11762153,20.8550347 0,17.9470486 0,14.5833333 C0,12.4348958 0.482855903,10.4329427 1.44856771,8.57747396 C2.41427951,6.72200521 3.68381076,5.1812066 5.25716146,3.95507812 C6.83051215,2.72894965 8.61002604,1.76323785 10.5957031,1.05794271 C12.5813802,0.352647569 14.6050347,0 16.6666667,0 C18.7282986,0 20.7519531,0.352647569 22.7376302,1.05794271 C24.7233073,1.76323785 26.5028212,2.72894965 28.0761719,3.95507812 C29.6495226,5.1812066 30.9190538,6.72200521 31.8847656,8.57747396 C32.8504774,10.4329427 33.3333333,12.4348958 33.3333333,14.5833333 Z" id="Shape"></path>
            </g>
        </g>
    </g>
</svg>